<?xml version="1.0" encoding="UTF-8" standalone="no"?>
<!DOCTYPE svg PUBLIC "-//W3C//DTD SVG 1.1//EN"
 "http://www.w3.org/Graphics/SVG/1.1/DTD/svg11.dtd">
<!-- Generated by graphviz version 6.0.1 (20220911.1526)
 -->
<!-- Title: Tree Pages: 1 -->
<svg width="1632pt" height="893pt"
 viewBox="0.00 0.00 1632.00 893.00" xmlns="http://www.w3.org/2000/svg" xmlns:xlink="http://www.w3.org/1999/xlink">
<g id="graph0" class="graph" transform="scale(1 1) rotate(0) translate(4 889)">
<title>Tree</title>
<polygon fill="white" stroke="none" points="-4,4 -4,-889 1628,-889 1628,4 -4,4"/>
<!-- 0 -->
<g id="node1" class="node">
<title>0</title>
<path fill="#eb9ef2" stroke="black" d="M933.5,-885C933.5,-885 812.5,-885 812.5,-885 806.5,-885 800.5,-879 800.5,-873 800.5,-873 800.5,-829 800.5,-829 800.5,-823 806.5,-817 812.5,-817 812.5,-817 933.5,-817 933.5,-817 939.5,-817 945.5,-823 945.5,-829 945.5,-829 945.5,-873 945.5,-873 945.5,-879 939.5,-885 933.5,-885"/>
<text text-anchor="middle" x="873" y="-869.8" font-family="Helvetica,sans-Serif" font-size="14.00">X[3] &lt;= &#45;19974.308</text>
<text text-anchor="middle" x="873" y="-854.8" font-family="Helvetica,sans-Serif" font-size="14.00">gini = 0.557</text>
<text text-anchor="middle" x="873" y="-839.8" font-family="Helvetica,sans-Serif" font-size="14.00">samples = 72</text>
<text text-anchor="middle" x="873" y="-824.8" font-family="Helvetica,sans-Serif" font-size="14.00">value = [17, 8, 3, 44]</text>
</g>
<!-- 1 -->
<g id="node2" class="node">
<title>1</title>
<path fill="#d739e5" stroke="black" d="M850.5,-773.5C850.5,-773.5 737.5,-773.5 737.5,-773.5 731.5,-773.5 725.5,-767.5 725.5,-761.5 725.5,-761.5 725.5,-732.5 725.5,-732.5 725.5,-726.5 731.5,-720.5 737.5,-720.5 737.5,-720.5 850.5,-720.5 850.5,-720.5 856.5,-720.5 862.5,-726.5 862.5,-732.5 862.5,-732.5 862.5,-761.5 862.5,-761.5 862.5,-767.5 856.5,-773.5 850.5,-773.5"/>
<text text-anchor="middle" x="794" y="-758.3" font-family="Helvetica,sans-Serif" font-size="14.00">gini = 0.0</text>
<text text-anchor="middle" x="794" y="-743.3" font-family="Helvetica,sans-Serif" font-size="14.00">samples = 17</text>
<text text-anchor="middle" x="794" y="-728.3" font-family="Helvetica,sans-Serif" font-size="14.00">value = [0, 0, 0, 17]</text>
</g>
<!-- 0&#45;&gt;1 -->
<g id="edge1" class="edge">
<title>0&#45;&gt;1</title>
<path fill="none" stroke="black" d="M847.35,-816.88C838.58,-805.56 828.76,-792.88 819.96,-781.52"/>
<polygon fill="black" stroke="black" points="822.66,-779.28 813.77,-773.52 817.12,-783.57 822.66,-779.28"/>
<text text-anchor="middle" x="810.61" y="-794.62" font-family="Helvetica,sans-Serif" font-size="14.00">True</text>
</g>
<!-- 2 -->
<g id="node3" class="node">
<title>2</title>
<path fill="#f4cbf8" stroke="black" d="M1013.5,-781C1013.5,-781 892.5,-781 892.5,-781 886.5,-781 880.5,-775 880.5,-769 880.5,-769 880.5,-725 880.5,-725 880.5,-719 886.5,-713 892.5,-713 892.5,-713 1013.5,-713 1013.5,-713 1019.5,-713 1025.5,-719 1025.5,-725 1025.5,-725 1025.5,-769 1025.5,-769 1025.5,-775 1019.5,-781 1013.5,-781"/>
<text text-anchor="middle" x="953" y="-765.8" font-family="Helvetica,sans-Serif" font-size="14.00">X[33] &lt;= 3880.999</text>
<text text-anchor="middle" x="953" y="-750.8" font-family="Helvetica,sans-Serif" font-size="14.00">gini = 0.639</text>
<text text-anchor="middle" x="953" y="-735.8" font-family="Helvetica,sans-Serif" font-size="14.00">samples = 55</text>
<text text-anchor="middle" x="953" y="-720.8" font-family="Helvetica,sans-Serif" font-size="14.00">value = [17, 8, 3, 27]</text>
</g>
<!-- 0&#45;&gt;2 -->
<g id="edge2" class="edge">
<title>0&#45;&gt;2</title>
<path fill="none" stroke="black" d="M898.97,-816.88C905.89,-808.07 913.45,-798.43 920.66,-789.24"/>
<polygon fill="black" stroke="black" points="923.47,-791.33 926.88,-781.3 917.96,-787.01 923.47,-791.33"/>
<text text-anchor="middle" x="929.88" y="-802.42" font-family="Helvetica,sans-Serif" font-size="14.00">False</text>
</g>
<!-- 3 -->
<g id="node4" class="node">
<title>3</title>
<path fill="#fae7d9" stroke="black" d="M859.5,-677C859.5,-677 738.5,-677 738.5,-677 732.5,-677 726.5,-671 726.5,-665 726.5,-665 726.5,-621 726.5,-621 726.5,-615 732.5,-609 738.5,-609 738.5,-609 859.5,-609 859.5,-609 865.5,-609 871.5,-615 871.5,-621 871.5,-621 871.5,-665 871.5,-665 871.5,-671 865.5,-677 859.5,-677"/>
<text text-anchor="middle" x="799" y="-661.8" font-family="Helvetica,sans-Serif" font-size="14.00">X[3] &lt;= &#45;12744.389</text>
<text text-anchor="middle" x="799" y="-646.8" font-family="Helvetica,sans-Serif" font-size="14.00">gini = 0.666</text>
<text text-anchor="middle" x="799" y="-631.8" font-family="Helvetica,sans-Serif" font-size="14.00">samples = 31</text>
<text text-anchor="middle" x="799" y="-616.8" font-family="Helvetica,sans-Serif" font-size="14.00">value = [14, 4, 3, 10]</text>
</g>
<!-- 2&#45;&gt;3 -->
<g id="edge3" class="edge">
<title>2&#45;&gt;3</title>
<path fill="none" stroke="black" d="M903,-712.88C888.54,-703.3 872.62,-692.76 857.68,-682.86"/>
<polygon fill="black" stroke="black" points="859.28,-679.73 849.01,-677.12 855.42,-685.56 859.28,-679.73"/>
</g>
<!-- 26 -->
<g id="node27" class="node">
<title>26</title>
<path fill="#e57eee" stroke="black" d="M1162.5,-677C1162.5,-677 1049.5,-677 1049.5,-677 1043.5,-677 1037.5,-671 1037.5,-665 1037.5,-665 1037.5,-621 1037.5,-621 1037.5,-615 1043.5,-609 1049.5,-609 1049.5,-609 1162.5,-609 1162.5,-609 1168.5,-609 1174.5,-615 1174.5,-621 1174.5,-621 1174.5,-665 1174.5,-665 1174.5,-671 1168.5,-677 1162.5,-677"/>
<text text-anchor="middle" x="1106" y="-661.8" font-family="Helvetica,sans-Serif" font-size="14.00">X[42] &lt;= 9982.792</text>
<text text-anchor="middle" x="1106" y="-646.8" font-family="Helvetica,sans-Serif" font-size="14.00">gini = 0.455</text>
<text text-anchor="middle" x="1106" y="-631.8" font-family="Helvetica,sans-Serif" font-size="14.00">samples = 24</text>
<text text-anchor="middle" x="1106" y="-616.8" font-family="Helvetica,sans-Serif" font-size="14.00">value = [3, 4, 0, 17]</text>
</g>
<!-- 2&#45;&gt;26 -->
<g id="edge26" class="edge">
<title>2&#45;&gt;26</title>
<path fill="none" stroke="black" d="M1002.67,-712.88C1017.04,-703.3 1032.86,-692.76 1047.7,-682.86"/>
<polygon fill="black" stroke="black" points="1049.93,-685.58 1056.31,-677.12 1046.05,-679.76 1049.93,-685.58"/>
</g>
<!-- 4 -->
<g id="node5" class="node">
<title>4</title>
<path fill="#fae5fc" stroke="black" d="M552,-573C552,-573 448,-573 448,-573 442,-573 436,-567 436,-561 436,-561 436,-517 436,-517 436,-511 442,-505 448,-505 448,-505 552,-505 552,-505 558,-505 564,-511 564,-517 564,-517 564,-561 564,-561 564,-567 558,-573 552,-573"/>
<text text-anchor="middle" x="500" y="-557.8" font-family="Helvetica,sans-Serif" font-size="14.00">X[14] &lt;= 3045.56</text>
<text text-anchor="middle" x="500" y="-542.8" font-family="Helvetica,sans-Serif" font-size="14.00">gini = 0.717</text>
<text text-anchor="middle" x="500" y="-527.8" font-family="Helvetica,sans-Serif" font-size="14.00">samples = 21</text>
<text text-anchor="middle" x="500" y="-512.8" font-family="Helvetica,sans-Serif" font-size="14.00">value = [6, 4, 3, 8]</text>
</g>
<!-- 3&#45;&gt;4 -->
<g id="edge4" class="edge">
<title>3&#45;&gt;4</title>
<path fill="none" stroke="black" d="M726.24,-617.18C680.08,-601.43 620.54,-581.12 574.12,-565.29"/>
<polygon fill="black" stroke="black" points="575.02,-561.9 564.43,-561.98 572.76,-568.52 575.02,-561.9"/>
</g>
<!-- 21 -->
<g id="node22" class="node">
<title>21</title>
<path fill="#eca06a" stroke="black" d="M857,-573C857,-573 741,-573 741,-573 735,-573 729,-567 729,-561 729,-561 729,-517 729,-517 729,-511 735,-505 741,-505 741,-505 857,-505 857,-505 863,-505 869,-511 869,-517 869,-517 869,-561 869,-561 869,-567 863,-573 857,-573"/>
<text text-anchor="middle" x="799" y="-557.8" font-family="Helvetica,sans-Serif" font-size="14.00">X[8] &lt;= &#45;27025.753</text>
<text text-anchor="middle" x="799" y="-542.8" font-family="Helvetica,sans-Serif" font-size="14.00">gini = 0.32</text>
<text text-anchor="middle" x="799" y="-527.8" font-family="Helvetica,sans-Serif" font-size="14.00">samples = 10</text>
<text text-anchor="middle" x="799" y="-512.8" font-family="Helvetica,sans-Serif" font-size="14.00">value = [8, 0, 0, 2]</text>
</g>
<!-- 3&#45;&gt;21 -->
<g id="edge21" class="edge">
<title>3&#45;&gt;21</title>
<path fill="none" stroke="black" d="M799,-608.88C799,-600.78 799,-591.98 799,-583.47"/>
<polygon fill="black" stroke="black" points="802.5,-583.3 799,-573.3 795.5,-583.3 802.5,-583.3"/>
</g>
<!-- 5 -->
<g id="node6" class="node">
<title>5</title>
<path fill="#dafad7" stroke="black" d="M335,-469C335,-469 223,-469 223,-469 217,-469 211,-463 211,-457 211,-457 211,-413 211,-413 211,-407 217,-401 223,-401 223,-401 335,-401 335,-401 341,-401 347,-407 347,-413 347,-413 347,-457 347,-457 347,-463 341,-469 335,-469"/>
<text text-anchor="middle" x="279" y="-453.8" font-family="Helvetica,sans-Serif" font-size="14.00">X[12] &lt;= 1689.225</text>
<text text-anchor="middle" x="279" y="-438.8" font-family="Helvetica,sans-Serif" font-size="14.00">gini = 0.594</text>
<text text-anchor="middle" x="279" y="-423.8" font-family="Helvetica,sans-Serif" font-size="14.00">samples = 8</text>
<text text-anchor="middle" x="279" y="-408.8" font-family="Helvetica,sans-Serif" font-size="14.00">value = [3, 4, 0, 1]</text>
</g>
<!-- 4&#45;&gt;5 -->
<g id="edge5" class="edge">
<title>4&#45;&gt;5</title>
<path fill="none" stroke="black" d="M435.78,-508.36C411.04,-496.94 382.51,-483.78 356.64,-471.83"/>
<polygon fill="black" stroke="black" points="357.78,-468.51 347.23,-467.49 354.85,-474.86 357.78,-468.51"/>
</g>
<!-- 12 -->
<g id="node13" class="node">
<title>12</title>
<path fill="#efb0f5" stroke="black" d="M556,-469C556,-469 444,-469 444,-469 438,-469 432,-463 432,-457 432,-457 432,-413 432,-413 432,-407 438,-401 444,-401 444,-401 556,-401 556,-401 562,-401 568,-407 568,-413 568,-413 568,-457 568,-457 568,-463 562,-469 556,-469"/>
<text text-anchor="middle" x="500" y="-453.8" font-family="Helvetica,sans-Serif" font-size="14.00">X[55] &lt;= 9477.476</text>
<text text-anchor="middle" x="500" y="-438.8" font-family="Helvetica,sans-Serif" font-size="14.00">gini = 0.604</text>
<text text-anchor="middle" x="500" y="-423.8" font-family="Helvetica,sans-Serif" font-size="14.00">samples = 13</text>
<text text-anchor="middle" x="500" y="-408.8" font-family="Helvetica,sans-Serif" font-size="14.00">value = [3, 0, 3, 7]</text>
</g>
<!-- 4&#45;&gt;12 -->
<g id="edge12" class="edge">
<title>4&#45;&gt;12</title>
<path fill="none" stroke="black" d="M500,-504.88C500,-496.78 500,-487.98 500,-479.47"/>
<polygon fill="black" stroke="black" points="503.5,-479.3 500,-469.3 496.5,-479.3 503.5,-479.3"/>
</g>
<!-- 6 -->
<g id="node7" class="node">
<title>6</title>
<path fill="#91ef88" stroke="black" d="M185,-365C185,-365 65,-365 65,-365 59,-365 53,-359 53,-353 53,-353 53,-309 53,-309 53,-303 59,-297 65,-297 65,-297 185,-297 185,-297 191,-297 197,-303 197,-309 197,-309 197,-353 197,-353 197,-359 191,-365 185,-365"/>
<text text-anchor="middle" x="125" y="-349.8" font-family="Helvetica,sans-Serif" font-size="14.00">X[35] &lt;= 109924.45</text>
<text text-anchor="middle" x="125" y="-334.8" font-family="Helvetica,sans-Serif" font-size="14.00">gini = 0.5</text>
<text text-anchor="middle" x="125" y="-319.8" font-family="Helvetica,sans-Serif" font-size="14.00">samples = 6</text>
<text text-anchor="middle" x="125" y="-304.8" font-family="Helvetica,sans-Serif" font-size="14.00">value = [1, 4, 0, 1]</text>
</g>
<!-- 5&#45;&gt;6 -->
<g id="edge6" class="edge">
<title>5&#45;&gt;6</title>
<path fill="none" stroke="black" d="M229,-400.88C214.54,-391.3 198.62,-380.76 183.68,-370.86"/>
<polygon fill="black" stroke="black" points="185.28,-367.73 175.01,-365.12 181.42,-373.56 185.28,-367.73"/>
</g>
<!-- 11 -->
<g id="node12" class="node">
<title>11</title>
<path fill="#e58139" stroke="black" d="M331,-357.5C331,-357.5 227,-357.5 227,-357.5 221,-357.5 215,-351.5 215,-345.5 215,-345.5 215,-316.5 215,-316.5 215,-310.5 221,-304.5 227,-304.5 227,-304.5 331,-304.5 331,-304.5 337,-304.5 343,-310.5 343,-316.5 343,-316.5 343,-345.5 343,-345.5 343,-351.5 337,-357.5 331,-357.5"/>
<text text-anchor="middle" x="279" y="-342.3" font-family="Helvetica,sans-Serif" font-size="14.00">gini = 0.0</text>
<text text-anchor="middle" x="279" y="-327.3" font-family="Helvetica,sans-Serif" font-size="14.00">samples = 2</text>
<text text-anchor="middle" x="279" y="-312.3" font-family="Helvetica,sans-Serif" font-size="14.00">value = [2, 0, 0, 0]</text>
</g>
<!-- 5&#45;&gt;11 -->
<g id="edge11" class="edge">
<title>5&#45;&gt;11</title>
<path fill="none" stroke="black" d="M279,-400.88C279,-390.33 279,-378.6 279,-367.85"/>
<polygon fill="black" stroke="black" points="282.5,-367.52 279,-357.52 275.5,-367.52 282.5,-367.52"/>
</g>
<!-- 7 -->
<g id="node8" class="node">
<title>7</title>
<path fill="#75ec6a" stroke="black" d="M124,-261C124,-261 12,-261 12,-261 6,-261 0,-255 0,-249 0,-249 0,-205 0,-205 0,-199 6,-193 12,-193 12,-193 124,-193 124,-193 130,-193 136,-199 136,-205 136,-205 136,-249 136,-249 136,-255 130,-261 124,-261"/>
<text text-anchor="middle" x="68" y="-245.8" font-family="Helvetica,sans-Serif" font-size="14.00">X[46] &lt;= 2614.924</text>
<text text-anchor="middle" x="68" y="-230.8" font-family="Helvetica,sans-Serif" font-size="14.00">gini = 0.32</text>
<text text-anchor="middle" x="68" y="-215.8" font-family="Helvetica,sans-Serif" font-size="14.00">samples = 5</text>
<text text-anchor="middle" x="68" y="-200.8" font-family="Helvetica,sans-Serif" font-size="14.00">value = [1, 4, 0, 0]</text>
</g>
<!-- 6&#45;&gt;7 -->
<g id="edge7" class="edge">
<title>6&#45;&gt;7</title>
<path fill="none" stroke="black" d="M106.49,-296.88C101.72,-288.33 96.51,-279.01 91.51,-270.07"/>
<polygon fill="black" stroke="black" points="94.54,-268.32 86.61,-261.3 88.43,-271.74 94.54,-268.32"/>
</g>
<!-- 10 -->
<g id="node11" class="node">
<title>10</title>
<path fill="#d739e5" stroke="black" d="M270,-253.5C270,-253.5 166,-253.5 166,-253.5 160,-253.5 154,-247.5 154,-241.5 154,-241.5 154,-212.5 154,-212.5 154,-206.5 160,-200.5 166,-200.5 166,-200.5 270,-200.5 270,-200.5 276,-200.5 282,-206.5 282,-212.5 282,-212.5 282,-241.5 282,-241.5 282,-247.5 276,-253.5 270,-253.5"/>
<text text-anchor="middle" x="218" y="-238.3" font-family="Helvetica,sans-Serif" font-size="14.00">gini = 0.0</text>
<text text-anchor="middle" x="218" y="-223.3" font-family="Helvetica,sans-Serif" font-size="14.00">samples = 1</text>
<text text-anchor="middle" x="218" y="-208.3" font-family="Helvetica,sans-Serif" font-size="14.00">value = [0, 0, 0, 1]</text>
</g>
<!-- 6&#45;&gt;10 -->
<g id="edge10" class="edge">
<title>6&#45;&gt;10</title>
<path fill="none" stroke="black" d="M155.19,-296.88C165.62,-285.45 177.3,-272.63 187.74,-261.19"/>
<polygon fill="black" stroke="black" points="190.58,-263.27 194.73,-253.52 185.41,-258.55 190.58,-263.27"/>
</g>
<!-- 8 -->
<g id="node9" class="node">
<title>8</title>
<path fill="#e58139" stroke="black" d="M119,-149.5C119,-149.5 15,-149.5 15,-149.5 9,-149.5 3,-143.5 3,-137.5 3,-137.5 3,-108.5 3,-108.5 3,-102.5 9,-96.5 15,-96.5 15,-96.5 119,-96.5 119,-96.5 125,-96.5 131,-102.5 131,-108.5 131,-108.5 131,-137.5 131,-137.5 131,-143.5 125,-149.5 119,-149.5"/>
<text text-anchor="middle" x="67" y="-134.3" font-family="Helvetica,sans-Serif" font-size="14.00">gini = 0.0</text>
<text text-anchor="middle" x="67" y="-119.3" font-family="Helvetica,sans-Serif" font-size="14.00">samples = 1</text>
<text text-anchor="middle" x="67" y="-104.3" font-family="Helvetica,sans-Serif" font-size="14.00">value = [1, 0, 0, 0]</text>
</g>
<!-- 7&#45;&gt;8 -->
<g id="edge8" class="edge">
<title>7&#45;&gt;8</title>
<path fill="none" stroke="black" d="M67.68,-192.88C67.57,-182.33 67.46,-170.6 67.35,-159.85"/>
<polygon fill="black" stroke="black" points="70.85,-159.49 67.25,-149.52 63.85,-159.55 70.85,-159.49"/>
</g>
<!-- 9 -->
<g id="node10" class="node">
<title>9</title>
<path fill="#47e539" stroke="black" d="M265,-149.5C265,-149.5 161,-149.5 161,-149.5 155,-149.5 149,-143.5 149,-137.5 149,-137.5 149,-108.5 149,-108.5 149,-102.5 155,-96.5 161,-96.5 161,-96.5 265,-96.5 265,-96.5 271,-96.5 277,-102.5 277,-108.5 277,-108.5 277,-137.5 277,-137.5 277,-143.5 271,-149.5 265,-149.5"/>
<text text-anchor="middle" x="213" y="-134.3" font-family="Helvetica,sans-Serif" font-size="14.00">gini = 0.0</text>
<text text-anchor="middle" x="213" y="-119.3" font-family="Helvetica,sans-Serif" font-size="14.00">samples = 4</text>
<text text-anchor="middle" x="213" y="-104.3" font-family="Helvetica,sans-Serif" font-size="14.00">value = [0, 4, 0, 0]</text>
</g>
<!-- 7&#45;&gt;9 -->
<g id="edge9" class="edge">
<title>7&#45;&gt;9</title>
<path fill="none" stroke="black" d="M115.08,-192.88C132.12,-180.9 151.31,-167.4 168.15,-155.55"/>
<polygon fill="black" stroke="black" points="170.56,-158.14 176.72,-149.52 166.53,-152.41 170.56,-158.14"/>
</g>
<!-- 13 -->
<g id="node14" class="node">
<title>13</title>
<path fill="#eb9cf2" stroke="black" d="M485,-365C485,-365 373,-365 373,-365 367,-365 361,-359 361,-353 361,-353 361,-309 361,-309 361,-303 367,-297 373,-297 373,-297 485,-297 485,-297 491,-297 497,-303 497,-309 497,-309 497,-353 497,-353 497,-359 491,-365 485,-365"/>
<text text-anchor="middle" x="429" y="-349.8" font-family="Helvetica,sans-Serif" font-size="14.00">X[6] &lt;= 10107.191</text>
<text text-anchor="middle" x="429" y="-334.8" font-family="Helvetica,sans-Serif" font-size="14.00">gini = 0.512</text>
<text text-anchor="middle" x="429" y="-319.8" font-family="Helvetica,sans-Serif" font-size="14.00">samples = 11</text>
<text text-anchor="middle" x="429" y="-304.8" font-family="Helvetica,sans-Serif" font-size="14.00">value = [3, 0, 1, 7]</text>
</g>
<!-- 12&#45;&gt;13 -->
<g id="edge13" class="edge">
<title>12&#45;&gt;13</title>
<path fill="none" stroke="black" d="M476.95,-400.88C470.87,-392.15 464.24,-382.62 457.9,-373.51"/>
<polygon fill="black" stroke="black" points="460.76,-371.51 452.18,-365.3 455.02,-375.51 460.76,-371.51"/>
</g>
<!-- 20 -->
<g id="node21" class="node">
<title>20</title>
<path fill="#399de5" stroke="black" d="M631,-357.5C631,-357.5 527,-357.5 527,-357.5 521,-357.5 515,-351.5 515,-345.5 515,-345.5 515,-316.5 515,-316.5 515,-310.5 521,-304.5 527,-304.5 527,-304.5 631,-304.5 631,-304.5 637,-304.5 643,-310.5 643,-316.5 643,-316.5 643,-345.5 643,-345.5 643,-351.5 637,-357.5 631,-357.5"/>
<text text-anchor="middle" x="579" y="-342.3" font-family="Helvetica,sans-Serif" font-size="14.00">gini = 0.0</text>
<text text-anchor="middle" x="579" y="-327.3" font-family="Helvetica,sans-Serif" font-size="14.00">samples = 2</text>
<text text-anchor="middle" x="579" y="-312.3" font-family="Helvetica,sans-Serif" font-size="14.00">value = [0, 0, 2, 0]</text>
</g>
<!-- 12&#45;&gt;20 -->
<g id="edge20" class="edge">
<title>12&#45;&gt;20</title>
<path fill="none" stroke="black" d="M525.65,-400.88C534.42,-389.56 544.24,-376.88 553.04,-365.52"/>
<polygon fill="black" stroke="black" points="555.88,-367.57 559.23,-357.52 550.34,-363.28 555.88,-367.57"/>
</g>
<!-- 14 -->
<g id="node15" class="node">
<title>14</title>
<path fill="#e16aec" stroke="black" d="M470,-261C470,-261 350,-261 350,-261 344,-261 338,-255 338,-249 338,-249 338,-205 338,-205 338,-199 344,-193 350,-193 350,-193 470,-193 470,-193 476,-193 482,-199 482,-205 482,-205 482,-249 482,-249 482,-255 476,-261 470,-261"/>
<text text-anchor="middle" x="410" y="-245.8" font-family="Helvetica,sans-Serif" font-size="14.00">X[41] &lt;= 27827.174</text>
<text text-anchor="middle" x="410" y="-230.8" font-family="Helvetica,sans-Serif" font-size="14.00">gini = 0.37</text>
<text text-anchor="middle" x="410" y="-215.8" font-family="Helvetica,sans-Serif" font-size="14.00">samples = 9</text>
<text text-anchor="middle" x="410" y="-200.8" font-family="Helvetica,sans-Serif" font-size="14.00">value = [1, 0, 1, 7]</text>
</g>
<!-- 13&#45;&gt;14 -->
<g id="edge14" class="edge">
<title>13&#45;&gt;14</title>
<path fill="none" stroke="black" d="M422.83,-296.88C421.3,-288.69 419.65,-279.79 418.05,-271.19"/>
<polygon fill="black" stroke="black" points="421.47,-270.49 416.2,-261.3 414.59,-271.77 421.47,-270.49"/>
</g>
<!-- 19 -->
<g id="node20" class="node">
<title>19</title>
<path fill="#e58139" stroke="black" d="M616,-253.5C616,-253.5 512,-253.5 512,-253.5 506,-253.5 500,-247.5 500,-241.5 500,-241.5 500,-212.5 500,-212.5 500,-206.5 506,-200.5 512,-200.5 512,-200.5 616,-200.5 616,-200.5 622,-200.5 628,-206.5 628,-212.5 628,-212.5 628,-241.5 628,-241.5 628,-247.5 622,-253.5 616,-253.5"/>
<text text-anchor="middle" x="564" y="-238.3" font-family="Helvetica,sans-Serif" font-size="14.00">gini = 0.0</text>
<text text-anchor="middle" x="564" y="-223.3" font-family="Helvetica,sans-Serif" font-size="14.00">samples = 2</text>
<text text-anchor="middle" x="564" y="-208.3" font-family="Helvetica,sans-Serif" font-size="14.00">value = [2, 0, 0, 0]</text>
</g>
<!-- 13&#45;&gt;19 -->
<g id="edge19" class="edge">
<title>13&#45;&gt;19</title>
<path fill="none" stroke="black" d="M472.83,-296.88C488.7,-284.9 506.56,-271.4 522.24,-259.55"/>
<polygon fill="black" stroke="black" points="524.35,-262.34 530.22,-253.52 520.13,-256.76 524.35,-262.34"/>
</g>
<!-- 15 -->
<g id="node16" class="node">
<title>15</title>
<path fill="#dd55e9" stroke="black" d="M429,-157C429,-157 309,-157 309,-157 303,-157 297,-151 297,-145 297,-145 297,-101 297,-101 297,-95 303,-89 309,-89 309,-89 429,-89 429,-89 435,-89 441,-95 441,-101 441,-101 441,-145 441,-145 441,-151 435,-157 429,-157"/>
<text text-anchor="middle" x="369" y="-141.8" font-family="Helvetica,sans-Serif" font-size="14.00">X[52] &lt;= 30000.084</text>
<text text-anchor="middle" x="369" y="-126.8" font-family="Helvetica,sans-Serif" font-size="14.00">gini = 0.219</text>
<text text-anchor="middle" x="369" y="-111.8" font-family="Helvetica,sans-Serif" font-size="14.00">samples = 8</text>
<text text-anchor="middle" x="369" y="-96.8" font-family="Helvetica,sans-Serif" font-size="14.00">value = [0, 0, 1, 7]</text>
</g>
<!-- 14&#45;&gt;15 -->
<g id="edge15" class="edge">
<title>14&#45;&gt;15</title>
<path fill="none" stroke="black" d="M396.69,-192.88C393.32,-184.51 389.66,-175.4 386.14,-166.63"/>
<polygon fill="black" stroke="black" points="389.36,-165.27 382.39,-157.3 382.87,-167.88 389.36,-165.27"/>
</g>
<!-- 18 -->
<g id="node19" class="node">
<title>18</title>
<path fill="#e58139" stroke="black" d="M575,-149.5C575,-149.5 471,-149.5 471,-149.5 465,-149.5 459,-143.5 459,-137.5 459,-137.5 459,-108.5 459,-108.5 459,-102.5 465,-96.5 471,-96.5 471,-96.5 575,-96.5 575,-96.5 581,-96.5 587,-102.5 587,-108.5 587,-108.5 587,-137.5 587,-137.5 587,-143.5 581,-149.5 575,-149.5"/>
<text text-anchor="middle" x="523" y="-134.3" font-family="Helvetica,sans-Serif" font-size="14.00">gini = 0.0</text>
<text text-anchor="middle" x="523" y="-119.3" font-family="Helvetica,sans-Serif" font-size="14.00">samples = 1</text>
<text text-anchor="middle" x="523" y="-104.3" font-family="Helvetica,sans-Serif" font-size="14.00">value = [1, 0, 0, 0]</text>
</g>
<!-- 14&#45;&gt;18 -->
<g id="edge18" class="edge">
<title>14&#45;&gt;18</title>
<path fill="none" stroke="black" d="M446.69,-192.88C459.6,-181.23 474.1,-168.14 486.96,-156.53"/>
<polygon fill="black" stroke="black" points="489.65,-158.82 494.73,-149.52 484.96,-153.62 489.65,-158.82"/>
</g>
<!-- 16 -->
<g id="node17" class="node">
<title>16</title>
<path fill="#d739e5" stroke="black" d="M348,-53C348,-53 244,-53 244,-53 238,-53 232,-47 232,-41 232,-41 232,-12 232,-12 232,-6 238,0 244,0 244,0 348,0 348,0 354,0 360,-6 360,-12 360,-12 360,-41 360,-41 360,-47 354,-53 348,-53"/>
<text text-anchor="middle" x="296" y="-37.8" font-family="Helvetica,sans-Serif" font-size="14.00">gini = 0.0</text>
<text text-anchor="middle" x="296" y="-22.8" font-family="Helvetica,sans-Serif" font-size="14.00">samples = 7</text>
<text text-anchor="middle" x="296" y="-7.8" font-family="Helvetica,sans-Serif" font-size="14.00">value = [0, 0, 0, 7]</text>
</g>
<!-- 15&#45;&gt;16 -->
<g id="edge16" class="edge">
<title>15&#45;&gt;16</title>
<path fill="none" stroke="black" d="M343.47,-88.95C336.54,-79.98 329.04,-70.27 322.08,-61.26"/>
<polygon fill="black" stroke="black" points="324.76,-59.01 315.88,-53.24 319.22,-63.29 324.76,-59.01"/>
</g>
<!-- 17 -->
<g id="node18" class="node">
<title>17</title>
<path fill="#399de5" stroke="black" d="M494,-53C494,-53 390,-53 390,-53 384,-53 378,-47 378,-41 378,-41 378,-12 378,-12 378,-6 384,0 390,0 390,0 494,0 494,0 500,0 506,-6 506,-12 506,-12 506,-41 506,-41 506,-47 500,-53 494,-53"/>
<text text-anchor="middle" x="442" y="-37.8" font-family="Helvetica,sans-Serif" font-size="14.00">gini = 0.0</text>
<text text-anchor="middle" x="442" y="-22.8" font-family="Helvetica,sans-Serif" font-size="14.00">samples = 1</text>
<text text-anchor="middle" x="442" y="-7.8" font-family="Helvetica,sans-Serif" font-size="14.00">value = [0, 0, 1, 0]</text>
</g>
<!-- 15&#45;&gt;17 -->
<g id="edge17" class="edge">
<title>15&#45;&gt;17</title>
<path fill="none" stroke="black" d="M394.53,-88.95C401.46,-79.98 408.96,-70.27 415.92,-61.26"/>
<polygon fill="black" stroke="black" points="418.78,-63.29 422.12,-53.24 413.24,-59.01 418.78,-63.29"/>
</g>
<!-- 22 -->
<g id="node23" class="node">
<title>22</title>
<path fill="#e89152" stroke="black" d="M785,-469C785,-469 665,-469 665,-469 659,-469 653,-463 653,-457 653,-457 653,-413 653,-413 653,-407 659,-401 665,-401 665,-401 785,-401 785,-401 791,-401 797,-407 797,-413 797,-413 797,-457 797,-457 797,-463 791,-469 785,-469"/>
<text text-anchor="middle" x="725" y="-453.8" font-family="Helvetica,sans-Serif" font-size="14.00">X[68] &lt;= 18648.331</text>
<text text-anchor="middle" x="725" y="-438.8" font-family="Helvetica,sans-Serif" font-size="14.00">gini = 0.198</text>
<text text-anchor="middle" x="725" y="-423.8" font-family="Helvetica,sans-Serif" font-size="14.00">samples = 9</text>
<text text-anchor="middle" x="725" y="-408.8" font-family="Helvetica,sans-Serif" font-size="14.00">value = [8, 0, 0, 1]</text>
</g>
<!-- 21&#45;&gt;22 -->
<g id="edge22" class="edge">
<title>21&#45;&gt;22</title>
<path fill="none" stroke="black" d="M774.97,-504.88C768.64,-496.15 761.73,-486.62 755.12,-477.51"/>
<polygon fill="black" stroke="black" points="757.86,-475.34 749.16,-469.3 752.2,-479.45 757.86,-475.34"/>
</g>
<!-- 25 -->
<g id="node26" class="node">
<title>25</title>
<path fill="#d739e5" stroke="black" d="M931,-461.5C931,-461.5 827,-461.5 827,-461.5 821,-461.5 815,-455.5 815,-449.5 815,-449.5 815,-420.5 815,-420.5 815,-414.5 821,-408.5 827,-408.5 827,-408.5 931,-408.5 931,-408.5 937,-408.5 943,-414.5 943,-420.5 943,-420.5 943,-449.5 943,-449.5 943,-455.5 937,-461.5 931,-461.5"/>
<text text-anchor="middle" x="879" y="-446.3" font-family="Helvetica,sans-Serif" font-size="14.00">gini = 0.0</text>
<text text-anchor="middle" x="879" y="-431.3" font-family="Helvetica,sans-Serif" font-size="14.00">samples = 1</text>
<text text-anchor="middle" x="879" y="-416.3" font-family="Helvetica,sans-Serif" font-size="14.00">value = [0, 0, 0, 1]</text>
</g>
<!-- 21&#45;&gt;25 -->
<g id="edge25" class="edge">
<title>21&#45;&gt;25</title>
<path fill="none" stroke="black" d="M824.97,-504.88C833.86,-493.56 843.8,-480.88 852.71,-469.52"/>
<polygon fill="black" stroke="black" points="855.57,-471.55 858.98,-461.52 850.06,-467.23 855.57,-471.55"/>
</g>
<!-- 23 -->
<g id="node24" class="node">
<title>23</title>
<path fill="#e58139" stroke="black" d="M777,-357.5C777,-357.5 673,-357.5 673,-357.5 667,-357.5 661,-351.5 661,-345.5 661,-345.5 661,-316.5 661,-316.5 661,-310.5 667,-304.5 673,-304.5 673,-304.5 777,-304.5 777,-304.5 783,-304.5 789,-310.5 789,-316.5 789,-316.5 789,-345.5 789,-345.5 789,-351.5 783,-357.5 777,-357.5"/>
<text text-anchor="middle" x="725" y="-342.3" font-family="Helvetica,sans-Serif" font-size="14.00">gini = 0.0</text>
<text text-anchor="middle" x="725" y="-327.3" font-family="Helvetica,sans-Serif" font-size="14.00">samples = 8</text>
<text text-anchor="middle" x="725" y="-312.3" font-family="Helvetica,sans-Serif" font-size="14.00">value = [8, 0, 0, 0]</text>
</g>
<!-- 22&#45;&gt;23 -->
<g id="edge23" class="edge">
<title>22&#45;&gt;23</title>
<path fill="none" stroke="black" d="M725,-400.88C725,-390.33 725,-378.6 725,-367.85"/>
<polygon fill="black" stroke="black" points="728.5,-367.52 725,-357.52 721.5,-367.52 728.5,-367.52"/>
</g>
<!-- 24 -->
<g id="node25" class="node">
<title>24</title>
<path fill="#d739e5" stroke="black" d="M923,-357.5C923,-357.5 819,-357.5 819,-357.5 813,-357.5 807,-351.5 807,-345.5 807,-345.5 807,-316.5 807,-316.5 807,-310.5 813,-304.5 819,-304.5 819,-304.5 923,-304.5 923,-304.5 929,-304.5 935,-310.5 935,-316.5 935,-316.5 935,-345.5 935,-345.5 935,-351.5 929,-357.5 923,-357.5"/>
<text text-anchor="middle" x="871" y="-342.3" font-family="Helvetica,sans-Serif" font-size="14.00">gini = 0.0</text>
<text text-anchor="middle" x="871" y="-327.3" font-family="Helvetica,sans-Serif" font-size="14.00">samples = 1</text>
<text text-anchor="middle" x="871" y="-312.3" font-family="Helvetica,sans-Serif" font-size="14.00">value = [0, 0, 0, 1]</text>
</g>
<!-- 22&#45;&gt;24 -->
<g id="edge24" class="edge">
<title>22&#45;&gt;24</title>
<path fill="none" stroke="black" d="M772.4,-400.88C789.56,-388.9 808.88,-375.4 825.84,-363.55"/>
<polygon fill="black" stroke="black" points="828.28,-366.12 834.47,-357.52 824.27,-360.38 828.28,-366.12"/>
</g>
<!-- 27 -->
<g id="node28" class="node">
<title>27</title>
<path fill="#e26eec" stroke="black" d="M1166,-573C1166,-573 1046,-573 1046,-573 1040,-573 1034,-567 1034,-561 1034,-561 1034,-517 1034,-517 1034,-511 1040,-505 1046,-505 1046,-505 1166,-505 1166,-505 1172,-505 1178,-511 1178,-517 1178,-517 1178,-561 1178,-561 1178,-567 1172,-573 1166,-573"/>
<text text-anchor="middle" x="1106" y="-557.8" font-family="Helvetica,sans-Serif" font-size="14.00">X[87] &lt;= 11502.573</text>
<text text-anchor="middle" x="1106" y="-542.8" font-family="Helvetica,sans-Serif" font-size="14.00">gini = 0.332</text>
<text text-anchor="middle" x="1106" y="-527.8" font-family="Helvetica,sans-Serif" font-size="14.00">samples = 19</text>
<text text-anchor="middle" x="1106" y="-512.8" font-family="Helvetica,sans-Serif" font-size="14.00">value = [0, 4, 0, 15]</text>
</g>
<!-- 26&#45;&gt;27 -->
<g id="edge27" class="edge">
<title>26&#45;&gt;27</title>
<path fill="none" stroke="black" d="M1106,-608.88C1106,-600.78 1106,-591.98 1106,-583.47"/>
<polygon fill="black" stroke="black" points="1109.5,-583.3 1106,-573.3 1102.5,-583.3 1109.5,-583.3"/>
</g>
<!-- 36 -->
<g id="node37" class="node">
<title>36</title>
<path fill="#f6d5bd" stroke="black" d="M1385,-573C1385,-573 1281,-573 1281,-573 1275,-573 1269,-567 1269,-561 1269,-561 1269,-517 1269,-517 1269,-511 1275,-505 1281,-505 1281,-505 1385,-505 1385,-505 1391,-505 1397,-511 1397,-517 1397,-517 1397,-561 1397,-561 1397,-567 1391,-573 1385,-573"/>
<text text-anchor="middle" x="1333" y="-557.8" font-family="Helvetica,sans-Serif" font-size="14.00">X[65] &lt;= 9775.52</text>
<text text-anchor="middle" x="1333" y="-542.8" font-family="Helvetica,sans-Serif" font-size="14.00">gini = 0.48</text>
<text text-anchor="middle" x="1333" y="-527.8" font-family="Helvetica,sans-Serif" font-size="14.00">samples = 5</text>
<text text-anchor="middle" x="1333" y="-512.8" font-family="Helvetica,sans-Serif" font-size="14.00">value = [3, 0, 0, 2]</text>
</g>
<!-- 26&#45;&gt;36 -->
<g id="edge36" class="edge">
<title>26&#45;&gt;36</title>
<path fill="none" stroke="black" d="M1174.72,-611.12C1201.45,-599.11 1232.13,-585.32 1259.32,-573.11"/>
<polygon fill="black" stroke="black" points="1261.09,-576.15 1268.78,-568.86 1258.22,-569.76 1261.09,-576.15"/>
</g>
<!-- 28 -->
<g id="node29" class="node">
<title>28</title>
<path fill="#df61ea" stroke="black" d="M1093,-469C1093,-469 973,-469 973,-469 967,-469 961,-463 961,-457 961,-457 961,-413 961,-413 961,-407 967,-401 973,-401 973,-401 1093,-401 1093,-401 1099,-401 1105,-407 1105,-413 1105,-413 1105,-457 1105,-457 1105,-463 1099,-469 1093,-469"/>
<text text-anchor="middle" x="1033" y="-453.8" font-family="Helvetica,sans-Serif" font-size="14.00">X[89] &lt;= 11094.768</text>
<text text-anchor="middle" x="1033" y="-438.8" font-family="Helvetica,sans-Serif" font-size="14.00">gini = 0.278</text>
<text text-anchor="middle" x="1033" y="-423.8" font-family="Helvetica,sans-Serif" font-size="14.00">samples = 18</text>
<text text-anchor="middle" x="1033" y="-408.8" font-family="Helvetica,sans-Serif" font-size="14.00">value = [0, 3, 0, 15]</text>
</g>
<!-- 27&#45;&gt;28 -->
<g id="edge28" class="edge">
<title>27&#45;&gt;28</title>
<path fill="none" stroke="black" d="M1082.3,-504.88C1076.05,-496.15 1069.23,-486.62 1062.71,-477.51"/>
<polygon fill="black" stroke="black" points="1065.5,-475.39 1056.83,-469.3 1059.81,-479.47 1065.5,-475.39"/>
</g>
<!-- 35 -->
<g id="node36" class="node">
<title>35</title>
<path fill="#47e539" stroke="black" d="M1239,-461.5C1239,-461.5 1135,-461.5 1135,-461.5 1129,-461.5 1123,-455.5 1123,-449.5 1123,-449.5 1123,-420.5 1123,-420.5 1123,-414.5 1129,-408.5 1135,-408.5 1135,-408.5 1239,-408.5 1239,-408.5 1245,-408.5 1251,-414.5 1251,-420.5 1251,-420.5 1251,-449.5 1251,-449.5 1251,-455.5 1245,-461.5 1239,-461.5"/>
<text text-anchor="middle" x="1187" y="-446.3" font-family="Helvetica,sans-Serif" font-size="14.00">gini = 0.0</text>
<text text-anchor="middle" x="1187" y="-431.3" font-family="Helvetica,sans-Serif" font-size="14.00">samples = 1</text>
<text text-anchor="middle" x="1187" y="-416.3" font-family="Helvetica,sans-Serif" font-size="14.00">value = [0, 1, 0, 0]</text>
</g>
<!-- 27&#45;&gt;35 -->
<g id="edge35" class="edge">
<title>27&#45;&gt;35</title>
<path fill="none" stroke="black" d="M1132.3,-504.88C1141.29,-493.56 1151.36,-480.88 1160.38,-469.52"/>
<polygon fill="black" stroke="black" points="1163.26,-471.53 1166.73,-461.52 1157.77,-467.17 1163.26,-471.53"/>
</g>
<!-- 29 -->
<g id="node30" class="node">
<title>29</title>
<path fill="#dc53e8" stroke="black" d="M1089,-365C1089,-365 969,-365 969,-365 963,-365 957,-359 957,-353 957,-353 957,-309 957,-309 957,-303 963,-297 969,-297 969,-297 1089,-297 1089,-297 1095,-297 1101,-303 1101,-309 1101,-309 1101,-353 1101,-353 1101,-359 1095,-365 1089,-365"/>
<text text-anchor="middle" x="1029" y="-349.8" font-family="Helvetica,sans-Serif" font-size="14.00">X[85] &lt;= 10585.012</text>
<text text-anchor="middle" x="1029" y="-334.8" font-family="Helvetica,sans-Serif" font-size="14.00">gini = 0.208</text>
<text text-anchor="middle" x="1029" y="-319.8" font-family="Helvetica,sans-Serif" font-size="14.00">samples = 17</text>
<text text-anchor="middle" x="1029" y="-304.8" font-family="Helvetica,sans-Serif" font-size="14.00">value = [0, 2, 0, 15]</text>
</g>
<!-- 28&#45;&gt;29 -->
<g id="edge29" class="edge">
<title>28&#45;&gt;29</title>
<path fill="none" stroke="black" d="M1031.7,-400.88C1031.38,-392.78 1031.04,-383.98 1030.7,-375.47"/>
<polygon fill="black" stroke="black" points="1034.2,-375.15 1030.31,-365.3 1027.2,-375.43 1034.2,-375.15"/>
</g>
<!-- 34 -->
<g id="node35" class="node">
<title>34</title>
<path fill="#47e539" stroke="black" d="M1235,-357.5C1235,-357.5 1131,-357.5 1131,-357.5 1125,-357.5 1119,-351.5 1119,-345.5 1119,-345.5 1119,-316.5 1119,-316.5 1119,-310.5 1125,-304.5 1131,-304.5 1131,-304.5 1235,-304.5 1235,-304.5 1241,-304.5 1247,-310.5 1247,-316.5 1247,-316.5 1247,-345.5 1247,-345.5 1247,-351.5 1241,-357.5 1235,-357.5"/>
<text text-anchor="middle" x="1183" y="-342.3" font-family="Helvetica,sans-Serif" font-size="14.00">gini = 0.0</text>
<text text-anchor="middle" x="1183" y="-327.3" font-family="Helvetica,sans-Serif" font-size="14.00">samples = 1</text>
<text text-anchor="middle" x="1183" y="-312.3" font-family="Helvetica,sans-Serif" font-size="14.00">value = [0, 1, 0, 0]</text>
</g>
<!-- 28&#45;&gt;34 -->
<g id="edge34" class="edge">
<title>28&#45;&gt;34</title>
<path fill="none" stroke="black" d="M1081.7,-400.88C1099.49,-388.79 1119.54,-375.15 1137.08,-363.22"/>
<polygon fill="black" stroke="black" points="1139.17,-366.04 1145.47,-357.52 1135.23,-360.25 1139.17,-366.04"/>
</g>
<!-- 30 -->
<g id="node31" class="node">
<title>30</title>
<path fill="#da46e7" stroke="black" d="M947,-261C947,-261 827,-261 827,-261 821,-261 815,-255 815,-249 815,-249 815,-205 815,-205 815,-199 821,-193 827,-193 827,-193 947,-193 947,-193 953,-193 959,-199 959,-205 959,-205 959,-249 959,-249 959,-255 953,-261 947,-261"/>
<text text-anchor="middle" x="887" y="-245.8" font-family="Helvetica,sans-Serif" font-size="14.00">X[83] &lt;= 11961.353</text>
<text text-anchor="middle" x="887" y="-230.8" font-family="Helvetica,sans-Serif" font-size="14.00">gini = 0.117</text>
<text text-anchor="middle" x="887" y="-215.8" font-family="Helvetica,sans-Serif" font-size="14.00">samples = 16</text>
<text text-anchor="middle" x="887" y="-200.8" font-family="Helvetica,sans-Serif" font-size="14.00">value = [0, 1, 0, 15]</text>
</g>
<!-- 29&#45;&gt;30 -->
<g id="edge30" class="edge">
<title>29&#45;&gt;30</title>
<path fill="none" stroke="black" d="M982.9,-296.88C969.75,-287.44 955.3,-277.06 941.7,-267.29"/>
<polygon fill="black" stroke="black" points="943.52,-264.29 933.36,-261.3 939.44,-269.98 943.52,-264.29"/>
</g>
<!-- 33 -->
<g id="node34" class="node">
<title>33</title>
<path fill="#47e539" stroke="black" d="M1093,-253.5C1093,-253.5 989,-253.5 989,-253.5 983,-253.5 977,-247.5 977,-241.5 977,-241.5 977,-212.5 977,-212.5 977,-206.5 983,-200.5 989,-200.5 989,-200.5 1093,-200.5 1093,-200.5 1099,-200.5 1105,-206.5 1105,-212.5 1105,-212.5 1105,-241.5 1105,-241.5 1105,-247.5 1099,-253.5 1093,-253.5"/>
<text text-anchor="middle" x="1041" y="-238.3" font-family="Helvetica,sans-Serif" font-size="14.00">gini = 0.0</text>
<text text-anchor="middle" x="1041" y="-223.3" font-family="Helvetica,sans-Serif" font-size="14.00">samples = 1</text>
<text text-anchor="middle" x="1041" y="-208.3" font-family="Helvetica,sans-Serif" font-size="14.00">value = [0, 1, 0, 0]</text>
</g>
<!-- 29&#45;&gt;33 -->
<g id="edge33" class="edge">
<title>29&#45;&gt;33</title>
<path fill="none" stroke="black" d="M1032.9,-296.88C1034.15,-286.22 1035.55,-274.35 1036.82,-263.52"/>
<polygon fill="black" stroke="black" points="1040.31,-263.86 1038,-253.52 1033.35,-263.04 1040.31,-263.86"/>
</g>
<!-- 31 -->
<g id="node32" class="node">
<title>31</title>
<path fill="#d739e5" stroke="black" d="M804.5,-149.5C804.5,-149.5 691.5,-149.5 691.5,-149.5 685.5,-149.5 679.5,-143.5 679.5,-137.5 679.5,-137.5 679.5,-108.5 679.5,-108.5 679.5,-102.5 685.5,-96.5 691.5,-96.5 691.5,-96.5 804.5,-96.5 804.5,-96.5 810.5,-96.5 816.5,-102.5 816.5,-108.5 816.5,-108.5 816.5,-137.5 816.5,-137.5 816.5,-143.5 810.5,-149.5 804.5,-149.5"/>
<text text-anchor="middle" x="748" y="-134.3" font-family="Helvetica,sans-Serif" font-size="14.00">gini = 0.0</text>
<text text-anchor="middle" x="748" y="-119.3" font-family="Helvetica,sans-Serif" font-size="14.00">samples = 15</text>
<text text-anchor="middle" x="748" y="-104.3" font-family="Helvetica,sans-Serif" font-size="14.00">value = [0, 0, 0, 15]</text>
</g>
<!-- 30&#45;&gt;31 -->
<g id="edge31" class="edge">
<title>30&#45;&gt;31</title>
<path fill="none" stroke="black" d="M841.87,-192.88C825.53,-180.9 807.14,-167.4 790.99,-155.55"/>
<polygon fill="black" stroke="black" points="792.91,-152.61 782.78,-149.52 788.77,-158.26 792.91,-152.61"/>
</g>
<!-- 32 -->
<g id="node33" class="node">
<title>32</title>
<path fill="#47e539" stroke="black" d="M951,-149.5C951,-149.5 847,-149.5 847,-149.5 841,-149.5 835,-143.5 835,-137.5 835,-137.5 835,-108.5 835,-108.5 835,-102.5 841,-96.5 847,-96.5 847,-96.5 951,-96.5 951,-96.5 957,-96.5 963,-102.5 963,-108.5 963,-108.5 963,-137.5 963,-137.5 963,-143.5 957,-149.5 951,-149.5"/>
<text text-anchor="middle" x="899" y="-134.3" font-family="Helvetica,sans-Serif" font-size="14.00">gini = 0.0</text>
<text text-anchor="middle" x="899" y="-119.3" font-family="Helvetica,sans-Serif" font-size="14.00">samples = 1</text>
<text text-anchor="middle" x="899" y="-104.3" font-family="Helvetica,sans-Serif" font-size="14.00">value = [0, 1, 0, 0]</text>
</g>
<!-- 30&#45;&gt;32 -->
<g id="edge32" class="edge">
<title>30&#45;&gt;32</title>
<path fill="none" stroke="black" d="M890.9,-192.88C892.15,-182.22 893.55,-170.35 894.82,-159.52"/>
<polygon fill="black" stroke="black" points="898.31,-159.86 896,-149.52 891.35,-159.04 898.31,-159.86"/>
</g>
<!-- 37 -->
<g id="node38" class="node">
<title>37</title>
<path fill="#e58139" stroke="black" d="M1385,-461.5C1385,-461.5 1281,-461.5 1281,-461.5 1275,-461.5 1269,-455.5 1269,-449.5 1269,-449.5 1269,-420.5 1269,-420.5 1269,-414.5 1275,-408.5 1281,-408.5 1281,-408.5 1385,-408.5 1385,-408.5 1391,-408.5 1397,-414.5 1397,-420.5 1397,-420.5 1397,-449.5 1397,-449.5 1397,-455.5 1391,-461.5 1385,-461.5"/>
<text text-anchor="middle" x="1333" y="-446.3" font-family="Helvetica,sans-Serif" font-size="14.00">gini = 0.0</text>
<text text-anchor="middle" x="1333" y="-431.3" font-family="Helvetica,sans-Serif" font-size="14.00">samples = 2</text>
<text text-anchor="middle" x="1333" y="-416.3" font-family="Helvetica,sans-Serif" font-size="14.00">value = [2, 0, 0, 0]</text>
</g>
<!-- 36&#45;&gt;37 -->
<g id="edge37" class="edge">
<title>36&#45;&gt;37</title>
<path fill="none" stroke="black" d="M1333,-504.88C1333,-494.33 1333,-482.6 1333,-471.85"/>
<polygon fill="black" stroke="black" points="1336.5,-471.52 1333,-461.52 1329.5,-471.52 1336.5,-471.52"/>
</g>
<!-- 38 -->
<g id="node39" class="node">
<title>38</title>
<path fill="#eb9cf2" stroke="black" d="M1547,-469C1547,-469 1427,-469 1427,-469 1421,-469 1415,-463 1415,-457 1415,-457 1415,-413 1415,-413 1415,-407 1421,-401 1427,-401 1427,-401 1547,-401 1547,-401 1553,-401 1559,-407 1559,-413 1559,-413 1559,-457 1559,-457 1559,-463 1553,-469 1547,-469"/>
<text text-anchor="middle" x="1487" y="-453.8" font-family="Helvetica,sans-Serif" font-size="14.00">X[24] &lt;= 10076.786</text>
<text text-anchor="middle" x="1487" y="-438.8" font-family="Helvetica,sans-Serif" font-size="14.00">gini = 0.444</text>
<text text-anchor="middle" x="1487" y="-423.8" font-family="Helvetica,sans-Serif" font-size="14.00">samples = 3</text>
<text text-anchor="middle" x="1487" y="-408.8" font-family="Helvetica,sans-Serif" font-size="14.00">value = [1, 0, 0, 2]</text>
</g>
<!-- 36&#45;&gt;38 -->
<g id="edge38" class="edge">
<title>36&#45;&gt;38</title>
<path fill="none" stroke="black" d="M1383,-504.88C1397.46,-495.3 1413.38,-484.76 1428.32,-474.86"/>
<polygon fill="black" stroke="black" points="1430.58,-477.56 1436.99,-469.12 1426.72,-471.73 1430.58,-477.56"/>
</g>
<!-- 39 -->
<g id="node40" class="node">
<title>39</title>
<path fill="#d739e5" stroke="black" d="M1466,-357.5C1466,-357.5 1362,-357.5 1362,-357.5 1356,-357.5 1350,-351.5 1350,-345.5 1350,-345.5 1350,-316.5 1350,-316.5 1350,-310.5 1356,-304.5 1362,-304.5 1362,-304.5 1466,-304.5 1466,-304.5 1472,-304.5 1478,-310.5 1478,-316.5 1478,-316.5 1478,-345.5 1478,-345.5 1478,-351.5 1472,-357.5 1466,-357.5"/>
<text text-anchor="middle" x="1414" y="-342.3" font-family="Helvetica,sans-Serif" font-size="14.00">gini = 0.0</text>
<text text-anchor="middle" x="1414" y="-327.3" font-family="Helvetica,sans-Serif" font-size="14.00">samples = 2</text>
<text text-anchor="middle" x="1414" y="-312.3" font-family="Helvetica,sans-Serif" font-size="14.00">value = [0, 0, 0, 2]</text>
</g>
<!-- 38&#45;&gt;39 -->
<g id="edge39" class="edge">
<title>38&#45;&gt;39</title>
<path fill="none" stroke="black" d="M1463.3,-400.88C1455.27,-389.67 1446.3,-377.13 1438.23,-365.85"/>
<polygon fill="black" stroke="black" points="1440.93,-363.61 1432.26,-357.52 1435.24,-367.69 1440.93,-363.61"/>
</g>
<!-- 40 -->
<g id="node41" class="node">
<title>40</title>
<path fill="#e58139" stroke="black" d="M1612,-357.5C1612,-357.5 1508,-357.5 1508,-357.5 1502,-357.5 1496,-351.5 1496,-345.5 1496,-345.5 1496,-316.5 1496,-316.5 1496,-310.5 1502,-304.5 1508,-304.5 1508,-304.5 1612,-304.5 1612,-304.5 1618,-304.5 1624,-310.5 1624,-316.5 1624,-316.5 1624,-345.5 1624,-345.5 1624,-351.5 1618,-357.5 1612,-357.5"/>
<text text-anchor="middle" x="1560" y="-342.3" font-family="Helvetica,sans-Serif" font-size="14.00">gini = 0.0</text>
<text text-anchor="middle" x="1560" y="-327.3" font-family="Helvetica,sans-Serif" font-size="14.00">samples = 1</text>
<text text-anchor="middle" x="1560" y="-312.3" font-family="Helvetica,sans-Serif" font-size="14.00">value = [1, 0, 0, 0]</text>
</g>
<!-- 38&#45;&gt;40 -->
<g id="edge40" class="edge">
<title>38&#45;&gt;40</title>
<path fill="none" stroke="black" d="M1510.7,-400.88C1518.73,-389.67 1527.7,-377.13 1535.77,-365.85"/>
<polygon fill="black" stroke="black" points="1538.76,-367.69 1541.74,-357.52 1533.07,-363.61 1538.76,-367.69"/>
</g>
</g>
</svg>
