<?xml version="1.0" encoding="UTF-8" standalone="no"?>
<!DOCTYPE svg PUBLIC "-//W3C//DTD SVG 1.1//EN"
 "http://www.w3.org/Graphics/SVG/1.1/DTD/svg11.dtd">
<!-- Generated by graphviz version 6.0.1 (20220911.1526)
 -->
<!-- Title: Tree Pages: 1 -->
<svg width="955pt" height="581pt"
 viewBox="0.00 0.00 955.00 581.00" xmlns="http://www.w3.org/2000/svg" xmlns:xlink="http://www.w3.org/1999/xlink">
<g id="graph0" class="graph" transform="scale(1 1) rotate(0) translate(4 577)">
<title>Tree</title>
<polygon fill="white" stroke="none" points="-4,4 -4,-577 951,-577 951,4 -4,4"/>
<!-- 0 -->
<g id="node1" class="node">
<title>0</title>
<path fill="#eb9ef2" stroke="black" d="M524.5,-573C524.5,-573 403.5,-573 403.5,-573 397.5,-573 391.5,-567 391.5,-561 391.5,-561 391.5,-517 391.5,-517 391.5,-511 397.5,-505 403.5,-505 403.5,-505 524.5,-505 524.5,-505 530.5,-505 536.5,-511 536.5,-517 536.5,-517 536.5,-561 536.5,-561 536.5,-567 530.5,-573 524.5,-573"/>
<text text-anchor="middle" x="464" y="-557.8" font-family="Helvetica,sans-Serif" font-size="14.00">X[3] &lt;= &#45;19974.308</text>
<text text-anchor="middle" x="464" y="-542.8" font-family="Helvetica,sans-Serif" font-size="14.00">gini = 0.557</text>
<text text-anchor="middle" x="464" y="-527.8" font-family="Helvetica,sans-Serif" font-size="14.00">samples = 72</text>
<text text-anchor="middle" x="464" y="-512.8" font-family="Helvetica,sans-Serif" font-size="14.00">value = [17, 8, 3, 44]</text>
</g>
<!-- 1 -->
<g id="node2" class="node">
<title>1</title>
<path fill="#d739e5" stroke="black" d="M441.5,-461.5C441.5,-461.5 328.5,-461.5 328.5,-461.5 322.5,-461.5 316.5,-455.5 316.5,-449.5 316.5,-449.5 316.5,-420.5 316.5,-420.5 316.5,-414.5 322.5,-408.5 328.5,-408.5 328.5,-408.5 441.5,-408.5 441.5,-408.5 447.5,-408.5 453.5,-414.5 453.5,-420.5 453.5,-420.5 453.5,-449.5 453.5,-449.5 453.5,-455.5 447.5,-461.5 441.5,-461.5"/>
<text text-anchor="middle" x="385" y="-446.3" font-family="Helvetica,sans-Serif" font-size="14.00">gini = 0.0</text>
<text text-anchor="middle" x="385" y="-431.3" font-family="Helvetica,sans-Serif" font-size="14.00">samples = 17</text>
<text text-anchor="middle" x="385" y="-416.3" font-family="Helvetica,sans-Serif" font-size="14.00">value = [0, 0, 0, 17]</text>
</g>
<!-- 0&#45;&gt;1 -->
<g id="edge1" class="edge">
<title>0&#45;&gt;1</title>
<path fill="none" stroke="black" d="M438.35,-504.88C429.58,-493.56 419.76,-480.88 410.96,-469.52"/>
<polygon fill="black" stroke="black" points="413.66,-467.28 404.77,-461.52 408.12,-471.57 413.66,-467.28"/>
<text text-anchor="middle" x="401.61" y="-482.62" font-family="Helvetica,sans-Serif" font-size="14.00">True</text>
</g>
<!-- 2 -->
<g id="node3" class="node">
<title>2</title>
<path fill="#f4cbf8" stroke="black" d="M604.5,-469C604.5,-469 483.5,-469 483.5,-469 477.5,-469 471.5,-463 471.5,-457 471.5,-457 471.5,-413 471.5,-413 471.5,-407 477.5,-401 483.5,-401 483.5,-401 604.5,-401 604.5,-401 610.5,-401 616.5,-407 616.5,-413 616.5,-413 616.5,-457 616.5,-457 616.5,-463 610.5,-469 604.5,-469"/>
<text text-anchor="middle" x="544" y="-453.8" font-family="Helvetica,sans-Serif" font-size="14.00">X[57] &lt;= 9312.315</text>
<text text-anchor="middle" x="544" y="-438.8" font-family="Helvetica,sans-Serif" font-size="14.00">gini = 0.639</text>
<text text-anchor="middle" x="544" y="-423.8" font-family="Helvetica,sans-Serif" font-size="14.00">samples = 55</text>
<text text-anchor="middle" x="544" y="-408.8" font-family="Helvetica,sans-Serif" font-size="14.00">value = [17, 8, 3, 27]</text>
</g>
<!-- 0&#45;&gt;2 -->
<g id="edge2" class="edge">
<title>0&#45;&gt;2</title>
<path fill="none" stroke="black" d="M489.97,-504.88C496.89,-496.07 504.45,-486.43 511.66,-477.24"/>
<polygon fill="black" stroke="black" points="514.47,-479.33 517.88,-469.3 508.96,-475.01 514.47,-479.33"/>
<text text-anchor="middle" x="520.88" y="-490.42" font-family="Helvetica,sans-Serif" font-size="14.00">False</text>
</g>
<!-- 3 -->
<g id="node4" class="node">
<title>3</title>
<path fill="#fae7d9" stroke="black" d="M492.5,-365C492.5,-365 371.5,-365 371.5,-365 365.5,-365 359.5,-359 359.5,-353 359.5,-353 359.5,-309 359.5,-309 359.5,-303 365.5,-297 371.5,-297 371.5,-297 492.5,-297 492.5,-297 498.5,-297 504.5,-303 504.5,-309 504.5,-309 504.5,-353 504.5,-353 504.5,-359 498.5,-365 492.5,-365"/>
<text text-anchor="middle" x="432" y="-349.8" font-family="Helvetica,sans-Serif" font-size="14.00">X[32] &lt;= 8335.306</text>
<text text-anchor="middle" x="432" y="-334.8" font-family="Helvetica,sans-Serif" font-size="14.00">gini = 0.666</text>
<text text-anchor="middle" x="432" y="-319.8" font-family="Helvetica,sans-Serif" font-size="14.00">samples = 31</text>
<text text-anchor="middle" x="432" y="-304.8" font-family="Helvetica,sans-Serif" font-size="14.00">value = [14, 4, 3, 10]</text>
</g>
<!-- 2&#45;&gt;3 -->
<g id="edge3" class="edge">
<title>2&#45;&gt;3</title>
<path fill="none" stroke="black" d="M507.64,-400.88C497.56,-391.71 486.52,-381.65 476.06,-372.12"/>
<polygon fill="black" stroke="black" points="478.31,-369.44 468.56,-365.3 473.6,-374.62 478.31,-369.44"/>
</g>
<!-- 12 -->
<g id="node13" class="node">
<title>12</title>
<path fill="#e57eee" stroke="black" d="M712.5,-365C712.5,-365 599.5,-365 599.5,-365 593.5,-365 587.5,-359 587.5,-353 587.5,-353 587.5,-309 587.5,-309 587.5,-303 593.5,-297 599.5,-297 599.5,-297 712.5,-297 712.5,-297 718.5,-297 724.5,-303 724.5,-309 724.5,-309 724.5,-353 724.5,-353 724.5,-359 718.5,-365 712.5,-365"/>
<text text-anchor="middle" x="656" y="-349.8" font-family="Helvetica,sans-Serif" font-size="14.00">X[42] &lt;= 9982.792</text>
<text text-anchor="middle" x="656" y="-334.8" font-family="Helvetica,sans-Serif" font-size="14.00">gini = 0.455</text>
<text text-anchor="middle" x="656" y="-319.8" font-family="Helvetica,sans-Serif" font-size="14.00">samples = 24</text>
<text text-anchor="middle" x="656" y="-304.8" font-family="Helvetica,sans-Serif" font-size="14.00">value = [3, 4, 0, 17]</text>
</g>
<!-- 2&#45;&gt;12 -->
<g id="edge12" class="edge">
<title>2&#45;&gt;12</title>
<path fill="none" stroke="black" d="M580.36,-400.88C590.44,-391.71 601.48,-381.65 611.94,-372.12"/>
<polygon fill="black" stroke="black" points="614.4,-374.62 619.44,-365.3 609.69,-369.44 614.4,-374.62"/>
</g>
<!-- 4 -->
<g id="node5" class="node">
<title>4</title>
<path fill="#fae5fc" stroke="black" d="M270,-261C270,-261 158,-261 158,-261 152,-261 146,-255 146,-249 146,-249 146,-205 146,-205 146,-199 152,-193 158,-193 158,-193 270,-193 270,-193 276,-193 282,-199 282,-205 282,-205 282,-249 282,-249 282,-255 276,-261 270,-261"/>
<text text-anchor="middle" x="214" y="-245.8" font-family="Helvetica,sans-Serif" font-size="14.00">X[33] &lt;= 2246.075</text>
<text text-anchor="middle" x="214" y="-230.8" font-family="Helvetica,sans-Serif" font-size="14.00">gini = 0.717</text>
<text text-anchor="middle" x="214" y="-215.8" font-family="Helvetica,sans-Serif" font-size="14.00">samples = 21</text>
<text text-anchor="middle" x="214" y="-200.8" font-family="Helvetica,sans-Serif" font-size="14.00">value = [6, 4, 3, 8]</text>
</g>
<!-- 3&#45;&gt;4 -->
<g id="edge4" class="edge">
<title>3&#45;&gt;4</title>
<path fill="none" stroke="black" d="M361.22,-296.88C338.93,-286.45 314.2,-274.88 291.47,-264.25"/>
<polygon fill="black" stroke="black" points="292.74,-260.98 282.2,-259.91 289.77,-267.32 292.74,-260.98"/>
</g>
<!-- 9 -->
<g id="node10" class="node">
<title>9</title>
<path fill="#eca06a" stroke="black" d="M488,-261C488,-261 376,-261 376,-261 370,-261 364,-255 364,-249 364,-249 364,-205 364,-205 364,-199 370,-193 376,-193 376,-193 488,-193 488,-193 494,-193 500,-199 500,-205 500,-205 500,-249 500,-249 500,-255 494,-261 488,-261"/>
<text text-anchor="middle" x="432" y="-245.8" font-family="Helvetica,sans-Serif" font-size="14.00">X[68] &lt;= 9732.017</text>
<text text-anchor="middle" x="432" y="-230.8" font-family="Helvetica,sans-Serif" font-size="14.00">gini = 0.32</text>
<text text-anchor="middle" x="432" y="-215.8" font-family="Helvetica,sans-Serif" font-size="14.00">samples = 10</text>
<text text-anchor="middle" x="432" y="-200.8" font-family="Helvetica,sans-Serif" font-size="14.00">value = [8, 0, 0, 2]</text>
</g>
<!-- 3&#45;&gt;9 -->
<g id="edge9" class="edge">
<title>3&#45;&gt;9</title>
<path fill="none" stroke="black" d="M432,-296.88C432,-288.78 432,-279.98 432,-271.47"/>
<polygon fill="black" stroke="black" points="435.5,-271.3 432,-261.3 428.5,-271.3 435.5,-271.3"/>
</g>
<!-- 5 -->
<g id="node6" class="node">
<title>5</title>
<path fill="#dafad7" stroke="black" d="M116,-149.5C116,-149.5 12,-149.5 12,-149.5 6,-149.5 0,-143.5 0,-137.5 0,-137.5 0,-108.5 0,-108.5 0,-102.5 6,-96.5 12,-96.5 12,-96.5 116,-96.5 116,-96.5 122,-96.5 128,-102.5 128,-108.5 128,-108.5 128,-137.5 128,-137.5 128,-143.5 122,-149.5 116,-149.5"/>
<text text-anchor="middle" x="64" y="-134.3" font-family="Helvetica,sans-Serif" font-size="14.00">gini = 0.594</text>
<text text-anchor="middle" x="64" y="-119.3" font-family="Helvetica,sans-Serif" font-size="14.00">samples = 8</text>
<text text-anchor="middle" x="64" y="-104.3" font-family="Helvetica,sans-Serif" font-size="14.00">value = [3, 4, 0, 1]</text>
</g>
<!-- 4&#45;&gt;5 -->
<g id="edge5" class="edge">
<title>4&#45;&gt;5</title>
<path fill="none" stroke="black" d="M165.3,-192.88C147.51,-180.79 127.46,-167.15 109.92,-155.22"/>
<polygon fill="black" stroke="black" points="111.77,-152.25 101.53,-149.52 107.83,-158.04 111.77,-152.25"/>
</g>
<!-- 6 -->
<g id="node7" class="node">
<title>6</title>
<path fill="#efb0f5" stroke="black" d="M270,-157C270,-157 158,-157 158,-157 152,-157 146,-151 146,-145 146,-145 146,-101 146,-101 146,-95 152,-89 158,-89 158,-89 270,-89 270,-89 276,-89 282,-95 282,-101 282,-101 282,-145 282,-145 282,-151 276,-157 270,-157"/>
<text text-anchor="middle" x="214" y="-141.8" font-family="Helvetica,sans-Serif" font-size="14.00">X[41] &lt;= 9364.354</text>
<text text-anchor="middle" x="214" y="-126.8" font-family="Helvetica,sans-Serif" font-size="14.00">gini = 0.604</text>
<text text-anchor="middle" x="214" y="-111.8" font-family="Helvetica,sans-Serif" font-size="14.00">samples = 13</text>
<text text-anchor="middle" x="214" y="-96.8" font-family="Helvetica,sans-Serif" font-size="14.00">value = [3, 0, 3, 7]</text>
</g>
<!-- 4&#45;&gt;6 -->
<g id="edge6" class="edge">
<title>4&#45;&gt;6</title>
<path fill="none" stroke="black" d="M214,-192.88C214,-184.78 214,-175.98 214,-167.47"/>
<polygon fill="black" stroke="black" points="217.5,-167.3 214,-157.3 210.5,-167.3 217.5,-167.3"/>
</g>
<!-- 7 -->
<g id="node8" class="node">
<title>7</title>
<path fill="#eb9cf2" stroke="black" d="M193,-53C193,-53 89,-53 89,-53 83,-53 77,-47 77,-41 77,-41 77,-12 77,-12 77,-6 83,0 89,0 89,0 193,0 193,0 199,0 205,-6 205,-12 205,-12 205,-41 205,-41 205,-47 199,-53 193,-53"/>
<text text-anchor="middle" x="141" y="-37.8" font-family="Helvetica,sans-Serif" font-size="14.00">gini = 0.444</text>
<text text-anchor="middle" x="141" y="-22.8" font-family="Helvetica,sans-Serif" font-size="14.00">samples = 6</text>
<text text-anchor="middle" x="141" y="-7.8" font-family="Helvetica,sans-Serif" font-size="14.00">value = [0, 0, 2, 4]</text>
</g>
<!-- 6&#45;&gt;7 -->
<g id="edge7" class="edge">
<title>6&#45;&gt;7</title>
<path fill="none" stroke="black" d="M188.47,-88.95C181.54,-79.98 174.04,-70.27 167.08,-61.26"/>
<polygon fill="black" stroke="black" points="169.76,-59.01 160.88,-53.24 164.22,-63.29 169.76,-59.01"/>
</g>
<!-- 8 -->
<g id="node9" class="node">
<title>8</title>
<path fill="#ffffff" stroke="black" d="M339,-53C339,-53 235,-53 235,-53 229,-53 223,-47 223,-41 223,-41 223,-12 223,-12 223,-6 229,0 235,0 235,0 339,0 339,0 345,0 351,-6 351,-12 351,-12 351,-41 351,-41 351,-47 345,-53 339,-53"/>
<text text-anchor="middle" x="287" y="-37.8" font-family="Helvetica,sans-Serif" font-size="14.00">gini = 0.612</text>
<text text-anchor="middle" x="287" y="-22.8" font-family="Helvetica,sans-Serif" font-size="14.00">samples = 7</text>
<text text-anchor="middle" x="287" y="-7.8" font-family="Helvetica,sans-Serif" font-size="14.00">value = [3, 0, 1, 3]</text>
</g>
<!-- 6&#45;&gt;8 -->
<g id="edge8" class="edge">
<title>6&#45;&gt;8</title>
<path fill="none" stroke="black" d="M239.53,-88.95C246.46,-79.98 253.96,-70.27 260.92,-61.26"/>
<polygon fill="black" stroke="black" points="263.78,-63.29 267.12,-53.24 258.24,-59.01 263.78,-63.29"/>
</g>
<!-- 10 -->
<g id="node11" class="node">
<title>10</title>
<path fill="#e58139" stroke="black" d="M416,-149.5C416,-149.5 312,-149.5 312,-149.5 306,-149.5 300,-143.5 300,-137.5 300,-137.5 300,-108.5 300,-108.5 300,-102.5 306,-96.5 312,-96.5 312,-96.5 416,-96.5 416,-96.5 422,-96.5 428,-102.5 428,-108.5 428,-108.5 428,-137.5 428,-137.5 428,-143.5 422,-149.5 416,-149.5"/>
<text text-anchor="middle" x="364" y="-134.3" font-family="Helvetica,sans-Serif" font-size="14.00">gini = 0.0</text>
<text text-anchor="middle" x="364" y="-119.3" font-family="Helvetica,sans-Serif" font-size="14.00">samples = 5</text>
<text text-anchor="middle" x="364" y="-104.3" font-family="Helvetica,sans-Serif" font-size="14.00">value = [5, 0, 0, 0]</text>
</g>
<!-- 9&#45;&gt;10 -->
<g id="edge10" class="edge">
<title>9&#45;&gt;10</title>
<path fill="none" stroke="black" d="M409.92,-192.88C402.44,-181.67 394.08,-169.13 386.57,-157.85"/>
<polygon fill="black" stroke="black" points="389.47,-155.9 381.01,-149.52 383.65,-159.78 389.47,-155.9"/>
</g>
<!-- 11 -->
<g id="node12" class="node">
<title>11</title>
<path fill="#f6d5bd" stroke="black" d="M562,-149.5C562,-149.5 458,-149.5 458,-149.5 452,-149.5 446,-143.5 446,-137.5 446,-137.5 446,-108.5 446,-108.5 446,-102.5 452,-96.5 458,-96.5 458,-96.5 562,-96.5 562,-96.5 568,-96.5 574,-102.5 574,-108.5 574,-108.5 574,-137.5 574,-137.5 574,-143.5 568,-149.5 562,-149.5"/>
<text text-anchor="middle" x="510" y="-134.3" font-family="Helvetica,sans-Serif" font-size="14.00">gini = 0.48</text>
<text text-anchor="middle" x="510" y="-119.3" font-family="Helvetica,sans-Serif" font-size="14.00">samples = 5</text>
<text text-anchor="middle" x="510" y="-104.3" font-family="Helvetica,sans-Serif" font-size="14.00">value = [3, 0, 0, 2]</text>
</g>
<!-- 9&#45;&gt;11 -->
<g id="edge11" class="edge">
<title>9&#45;&gt;11</title>
<path fill="none" stroke="black" d="M457.32,-192.88C465.99,-181.56 475.68,-168.88 484.37,-157.52"/>
<polygon fill="black" stroke="black" points="487.19,-159.59 490.48,-149.52 481.63,-155.34 487.19,-159.59"/>
</g>
<!-- 13 -->
<g id="node14" class="node">
<title>13</title>
<path fill="#e26eec" stroke="black" d="M712.5,-261C712.5,-261 599.5,-261 599.5,-261 593.5,-261 587.5,-255 587.5,-249 587.5,-249 587.5,-205 587.5,-205 587.5,-199 593.5,-193 599.5,-193 599.5,-193 712.5,-193 712.5,-193 718.5,-193 724.5,-199 724.5,-205 724.5,-205 724.5,-249 724.5,-249 724.5,-255 718.5,-261 712.5,-261"/>
<text text-anchor="middle" x="656" y="-245.8" font-family="Helvetica,sans-Serif" font-size="14.00">X[83] &lt;= 9957.241</text>
<text text-anchor="middle" x="656" y="-230.8" font-family="Helvetica,sans-Serif" font-size="14.00">gini = 0.332</text>
<text text-anchor="middle" x="656" y="-215.8" font-family="Helvetica,sans-Serif" font-size="14.00">samples = 19</text>
<text text-anchor="middle" x="656" y="-200.8" font-family="Helvetica,sans-Serif" font-size="14.00">value = [0, 4, 0, 15]</text>
</g>
<!-- 12&#45;&gt;13 -->
<g id="edge13" class="edge">
<title>12&#45;&gt;13</title>
<path fill="none" stroke="black" d="M656,-296.88C656,-288.78 656,-279.98 656,-271.47"/>
<polygon fill="black" stroke="black" points="659.5,-271.3 656,-261.3 652.5,-271.3 659.5,-271.3"/>
</g>
<!-- 18 -->
<g id="node19" class="node">
<title>18</title>
<path fill="#f6d5bd" stroke="black" d="M859,-253.5C859,-253.5 755,-253.5 755,-253.5 749,-253.5 743,-247.5 743,-241.5 743,-241.5 743,-212.5 743,-212.5 743,-206.5 749,-200.5 755,-200.5 755,-200.5 859,-200.5 859,-200.5 865,-200.5 871,-206.5 871,-212.5 871,-212.5 871,-241.5 871,-241.5 871,-247.5 865,-253.5 859,-253.5"/>
<text text-anchor="middle" x="807" y="-238.3" font-family="Helvetica,sans-Serif" font-size="14.00">gini = 0.48</text>
<text text-anchor="middle" x="807" y="-223.3" font-family="Helvetica,sans-Serif" font-size="14.00">samples = 5</text>
<text text-anchor="middle" x="807" y="-208.3" font-family="Helvetica,sans-Serif" font-size="14.00">value = [3, 0, 0, 2]</text>
</g>
<!-- 12&#45;&gt;18 -->
<g id="edge18" class="edge">
<title>12&#45;&gt;18</title>
<path fill="none" stroke="black" d="M705.03,-296.88C722.93,-284.79 743.12,-271.15 760.78,-259.22"/>
<polygon fill="black" stroke="black" points="762.89,-262.02 769.22,-253.52 758.97,-256.22 762.89,-262.02"/>
</g>
<!-- 14 -->
<g id="node15" class="node">
<title>14</title>
<path fill="#d739e5" stroke="black" d="M708,-149.5C708,-149.5 604,-149.5 604,-149.5 598,-149.5 592,-143.5 592,-137.5 592,-137.5 592,-108.5 592,-108.5 592,-102.5 598,-96.5 604,-96.5 604,-96.5 708,-96.5 708,-96.5 714,-96.5 720,-102.5 720,-108.5 720,-108.5 720,-137.5 720,-137.5 720,-143.5 714,-149.5 708,-149.5"/>
<text text-anchor="middle" x="656" y="-134.3" font-family="Helvetica,sans-Serif" font-size="14.00">gini = 0.0</text>
<text text-anchor="middle" x="656" y="-119.3" font-family="Helvetica,sans-Serif" font-size="14.00">samples = 7</text>
<text text-anchor="middle" x="656" y="-104.3" font-family="Helvetica,sans-Serif" font-size="14.00">value = [0, 0, 0, 7]</text>
</g>
<!-- 13&#45;&gt;14 -->
<g id="edge14" class="edge">
<title>13&#45;&gt;14</title>
<path fill="none" stroke="black" d="M656,-192.88C656,-182.33 656,-170.6 656,-159.85"/>
<polygon fill="black" stroke="black" points="659.5,-159.52 656,-149.52 652.5,-159.52 659.5,-159.52"/>
</g>
<!-- 15 -->
<g id="node16" class="node">
<title>15</title>
<path fill="#eb9cf2" stroke="black" d="M870,-157C870,-157 750,-157 750,-157 744,-157 738,-151 738,-145 738,-145 738,-101 738,-101 738,-95 744,-89 750,-89 750,-89 870,-89 870,-89 876,-89 882,-95 882,-101 882,-101 882,-145 882,-145 882,-151 876,-157 870,-157"/>
<text text-anchor="middle" x="810" y="-141.8" font-family="Helvetica,sans-Serif" font-size="14.00">X[102] &lt;= 9986.034</text>
<text text-anchor="middle" x="810" y="-126.8" font-family="Helvetica,sans-Serif" font-size="14.00">gini = 0.444</text>
<text text-anchor="middle" x="810" y="-111.8" font-family="Helvetica,sans-Serif" font-size="14.00">samples = 12</text>
<text text-anchor="middle" x="810" y="-96.8" font-family="Helvetica,sans-Serif" font-size="14.00">value = [0, 4, 0, 8]</text>
</g>
<!-- 13&#45;&gt;15 -->
<g id="edge15" class="edge">
<title>13&#45;&gt;15</title>
<path fill="none" stroke="black" d="M706,-192.88C720.46,-183.3 736.38,-172.76 751.32,-162.86"/>
<polygon fill="black" stroke="black" points="753.58,-165.56 759.99,-157.12 749.72,-159.73 753.58,-165.56"/>
</g>
<!-- 16 -->
<g id="node17" class="node">
<title>16</title>
<path fill="#d1f8ce" stroke="black" d="M789,-53C789,-53 685,-53 685,-53 679,-53 673,-47 673,-41 673,-41 673,-12 673,-12 673,-6 679,0 685,0 685,0 789,0 789,0 795,0 801,-6 801,-12 801,-12 801,-41 801,-41 801,-47 795,-53 789,-53"/>
<text text-anchor="middle" x="737" y="-37.8" font-family="Helvetica,sans-Serif" font-size="14.00">gini = 0.49</text>
<text text-anchor="middle" x="737" y="-22.8" font-family="Helvetica,sans-Serif" font-size="14.00">samples = 7</text>
<text text-anchor="middle" x="737" y="-7.8" font-family="Helvetica,sans-Serif" font-size="14.00">value = [0, 4, 0, 3]</text>
</g>
<!-- 15&#45;&gt;16 -->
<g id="edge16" class="edge">
<title>15&#45;&gt;16</title>
<path fill="none" stroke="black" d="M784.47,-88.95C777.54,-79.98 770.04,-70.27 763.08,-61.26"/>
<polygon fill="black" stroke="black" points="765.76,-59.01 756.88,-53.24 760.22,-63.29 765.76,-59.01"/>
</g>
<!-- 17 -->
<g id="node18" class="node">
<title>17</title>
<path fill="#d739e5" stroke="black" d="M935,-53C935,-53 831,-53 831,-53 825,-53 819,-47 819,-41 819,-41 819,-12 819,-12 819,-6 825,0 831,0 831,0 935,0 935,0 941,0 947,-6 947,-12 947,-12 947,-41 947,-41 947,-47 941,-53 935,-53"/>
<text text-anchor="middle" x="883" y="-37.8" font-family="Helvetica,sans-Serif" font-size="14.00">gini = 0.0</text>
<text text-anchor="middle" x="883" y="-22.8" font-family="Helvetica,sans-Serif" font-size="14.00">samples = 5</text>
<text text-anchor="middle" x="883" y="-7.8" font-family="Helvetica,sans-Serif" font-size="14.00">value = [0, 0, 0, 5]</text>
</g>
<!-- 15&#45;&gt;17 -->
<g id="edge17" class="edge">
<title>15&#45;&gt;17</title>
<path fill="none" stroke="black" d="M835.53,-88.95C842.46,-79.98 849.96,-70.27 856.92,-61.26"/>
<polygon fill="black" stroke="black" points="859.78,-63.29 863.12,-53.24 854.24,-59.01 859.78,-63.29"/>
</g>
</g>
</svg>
